# xmcd
#
# Track frame offsets:
#	150
#	18757
#	37226
#	54860
#	71705
#	86477
#	103951
#	131653
#	151687
#	168991
#	199035
#
# Disc length: 2822 seconds
#
# Revision: 1
# Processed by: cddbd v1.4PL0 Copyright (c) Steve Scherf et al.
# Submitted via: audiograbber 1.81.01
#
DISCID=8b0b040b
DTITLE=Carlos Ann - Entre Lujos Y Otras Miserias
DYEAR=1900
DGENRE=
TTITLE0=Cualquier Nombre
TTITLE1=Si Tu Quieres Mi Princesa
TTITLE2=Tus Besos Son Muy Dulces
TTITLE3=Dime
TTITLE4=Vamonos Al Mar
TTITLE5=Algo Mas
TTITLE6=¡Me Humillaste!
TTITLE7=Brindare Por Ti
TTITLE8=La Tristeza No Se Va
TTITLE9=Mucha Suerte
TTITLE10=Pista de Datos
EXTD=
EXTT0=
EXTT1=
EXTT2=
EXTT3=
EXTT4=
EXTT5=
EXTT6=
EXTT7=
EXTT8=
EXTT9=
EXTT10=
PLAYORDER=
